<?xml version="1.0" encoding="utf-8"?>
<!-- Generator: Adobe Illustrator 25.4.1, SVG Export Plug-In . SVG Version: 6.00 Build 0)  -->
<svg version="1.1" id="Calque_1" xmlns="http://www.w3.org/2000/svg" xmlns:xlink="http://www.w3.org/1999/xlink" x="0px" y="0px"
	 viewBox="0 0 143.52 143.52" style="enable-background:new 0 0 143.52 143.52;" xml:space="preserve">
<style type="text/css">
	.st0{fill:#FFFFFF;}
</style>
<path class="st0" d="M137.74,109.84L99.53,71.63l37.95-37.95c7.7-7.7,7.7-20.19,0-27.9l0,0c-7.7-7.71-20.2-7.71-27.9,0L71.63,43.73
	L33.94,6.04c-7.7-7.7-20.2-7.7-27.9,0l0,0c-7.7,7.7-7.7,20.2,0,27.9l37.69,37.69L5.78,109.58c-7.7,7.7-7.7,20.2,0,27.9l0,0
	c7.7,7.7,20.19,7.7,27.9,0l37.95-37.95l38.21,38.21c7.7,7.7,20.2,7.7,27.9,0l0,0C145.44,130.03,145.44,117.54,137.74,109.84z"/>
</svg>
